<svg width="120" height="120" viewBox="0 0 120 120" fill="none" xmlns="http://www.w3.org/2000/svg">
<g clip-path="url(#clip0)">
<path d="M118.359 0H92.2659C91.8309 0.000248384 91.4137 0.173179 91.1061 0.480802C90.7985 0.788425 90.6256 1.20558 90.6253 1.64062V9.60938C90.6253 10.0445 90.7982 10.4618 91.1058 10.7695C91.4135 11.0771 91.8308 11.25 92.2659 11.25H94.2966V41.25C94.2943 43.3006 93.4787 45.2666 92.0287 46.7166C90.5788 48.1666 88.6128 48.9821 86.5622 48.9844H83.9859V44.0625C83.9857 43.6275 83.8128 43.2103 83.5051 42.9027C83.1975 42.5951 82.7804 42.4221 82.3453 42.4219H74.3766C74.161 42.4218 73.9475 42.4641 73.7483 42.5465C73.5491 42.6289 73.368 42.7497 73.2155 42.902C73.063 43.0544 72.942 43.2353 72.8594 43.4344C72.7768 43.6335 72.7342 43.8469 72.7341 44.0625V48.9844H47.2659V44.0625C47.2657 43.6275 47.0928 43.2103 46.7851 42.9027C46.4775 42.5951 46.0604 42.4221 45.6253 42.4219H37.6566C37.441 42.4218 37.2275 42.4641 37.0283 42.5465C36.8291 42.6289 36.648 42.7497 36.4955 42.902C36.343 43.0544 36.222 43.2353 36.1394 43.4344C36.0568 43.6335 36.0142 43.8469 36.0141 44.0625V48.9844H33.4378C25.5462 48.9933 17.9804 52.1322 12.4002 57.7124C6.82 63.2926 3.68112 70.8584 3.67219 78.75V108.75H1.64062C1.20567 108.75 0.788509 108.923 0.480859 109.23C0.173209 109.538 0.000248548 109.955 0 110.39L0 118.358C-7.09731e-08 118.794 0.172821 119.211 0.480471 119.519C0.788121 119.827 1.20542 120 1.64062 120H27.7341C28.1691 120 28.5863 119.827 28.8939 119.519C29.2015 119.212 29.3744 118.794 29.3747 118.359V110.391C29.3747 109.956 29.2018 109.538 28.8942 109.231C28.5865 108.923 28.1692 108.75 27.7341 108.75H25.7034V78.75C25.7057 76.6994 26.5213 74.7334 27.9713 73.2834C29.4212 71.8334 31.3872 71.0179 33.4378 71.0156H36.0141V75.9375C36.0143 76.3725 36.1872 76.7897 36.4949 77.0973C36.8025 77.4049 37.2196 77.5779 37.6547 77.5781H45.6234C45.839 77.5782 46.0525 77.5359 46.2517 77.4535C46.4509 77.3711 46.632 77.2503 46.7845 77.098C46.937 76.9456 47.058 76.7647 47.1406 76.5656C47.2232 76.3665 47.2658 76.1531 47.2659 75.9375V71.0156H72.7341V75.9375C72.7343 76.3725 72.9072 76.7897 73.2149 77.0973C73.5225 77.4049 73.9396 77.5779 74.3747 77.5781H82.3434C82.559 77.5782 82.7725 77.5359 82.9717 77.4535C83.1709 77.3711 83.352 77.2503 83.5045 77.098C83.657 76.9456 83.778 76.7647 83.8606 76.5656C83.9432 76.3665 83.9858 76.1531 83.9859 75.9375V71.0156H86.5622C94.4538 71.0067 102.02 67.8678 107.6 62.2876C113.18 56.7074 116.319 49.1416 116.328 41.25V11.25H118.359C118.794 11.25 119.212 11.0771 119.519 10.7695C119.827 10.4618 120 10.0445 120 9.60938V1.64062C120 1.20558 119.827 0.788425 119.519 0.480802C119.212 0.173179 118.794 0.000248384 118.359 0V0ZM86.5622 52.2656C89.4827 52.2624 92.2827 51.1008 94.3478 49.0357C96.413 46.9705 97.5746 44.1705 97.5778 41.25V11.25H106.484V41.25C106.478 46.5318 104.377 51.5955 100.643 55.3303C96.9077 59.0651 91.844 61.1659 86.5622 61.1719H83.9859V52.2656H86.5622ZM72.7341 52.2656V61.1719H47.2659V52.2656H72.7341ZM6.95344 78.75C6.96113 71.7283 9.75391 64.9963 14.719 60.0312C19.6841 55.0661 26.4161 52.2733 33.4378 52.2656H36.0141V61.1719H33.4378C28.7774 61.1771 24.3094 63.0307 21.014 66.3261C17.7185 69.6216 15.8649 74.0896 15.8597 78.75V108.75H6.95344V78.75ZM26.0934 116.719H3.28125V112.031H26.0934V116.719ZM33.4378 67.7344C30.5173 67.7376 27.7173 68.8992 25.6522 70.9643C23.587 73.0295 22.4254 75.8295 22.4222 78.75V108.75H19.1409V78.75C19.1452 74.9595 20.6528 71.3255 23.3331 68.6452C26.0133 65.965 29.6473 64.4573 33.4378 64.4531H36.0141V67.7344H33.4378ZM43.9847 74.2969H39.2972V45.7031H43.9847V74.2969ZM47.2659 67.7344V64.4531H72.7341V67.7344H47.2659ZM80.7047 74.2969H76.0172V45.7031H80.7047V74.2969ZM113.047 41.25C113.039 48.2717 110.246 55.0037 105.281 59.9688C100.316 64.9339 93.5839 67.7267 86.5622 67.7344H83.9859V64.4531H86.5622C92.7139 64.4462 98.6117 61.9993 102.962 57.6494C107.312 53.2995 109.758 47.4017 109.765 41.25V11.25H113.047V41.25ZM116.719 7.96875H93.9066V3.28125H116.719V7.96875Z" fill="#262C44"/>
<path d="M58.65 75.4314C57.66 76.8639 48.9844 89.5877 48.9844 95.1189C48.9844 98.0404 50.1449 100.842 52.2108 102.908C54.2766 104.974 57.0785 106.135 60 106.135C62.9215 106.135 65.7234 104.974 67.7892 102.908C69.8551 100.842 71.0156 98.0404 71.0156 95.1189C71.0156 89.5877 62.34 76.862 61.35 75.4314C61.1911 75.2243 60.9867 75.0566 60.7526 74.9411C60.5185 74.8257 60.261 74.7656 60 74.7656C59.739 74.7656 59.4815 74.8257 59.2474 74.9411C59.0133 75.0566 58.8089 75.2243 58.65 75.4314ZM60 102.855C57.9494 102.853 55.9834 102.037 54.5334 100.587C53.0834 99.1374 52.2679 97.1714 52.2656 95.1208C52.2656 92.1339 56.5725 84.5542 60 79.308C63.4275 84.558 67.7344 92.1339 67.7344 95.1208C67.7321 97.1714 66.9166 99.1374 65.4666 100.587C64.0166 102.037 62.0506 102.853 60 102.855Z" fill="#262C44"/>
</g>
<defs>
<clipPath id="clip0">
<rect width="120" height="120" fill="white"/>
</clipPath>
</defs>
</svg>
