<svg width="120" height="120" viewBox="0 0 120 120" fill="none" xmlns="http://www.w3.org/2000/svg">
<path d="M114 99.6C102.063 93.27 92.9072 89.7206 84.7566 88.3598L85.6001 87.2001C86.0001 86.8001 86.2001 86.2001 86.0001 85.6001L84.1259 78.1031C84.8051 77.1429 85.4459 76.1501 86.0461 75.1294C93.4992 72.5927 97.2682 68.3048 97.9015 61.9917C101.175 61.8211 104 58.8991 104 55.6001V40.6001C104 37.316 101.387 34.4058 97.9648 34.211C97.5244 22.6573 92.43 0 60 0C27.5693 0 22.4754 22.6582 22.035 34.2117C18.7882 34.4034 16.0001 37.1295 16.0001 40.5998V55.5998C16.0001 58.9999 19.0001 61.9999 22.6001 61.9999H25.6001C26.7026 61.9999 27.7622 61.683 28.6852 61.1407C29.8193 67.1606 32.3222 73.0816 35.8744 78.1029L34.0001 85.5998C34.0001 85.9999 34.0001 86.5999 34.4002 87.1999L35.2437 88.3596C27.093 89.7206 17.937 93.2698 6.00023 99.5998C2.20008 101.4 0 105.2 0 109.4V118C0 119.2 0.799922 120 1.99992 120H49.9999H50.7998H69.1999H69.9998H118C119.2 120 120 119.2 120 118V109.4C120 105.4 117.6 101.6 114 99.6ZM60.011 95.0252L64.8 106H55.1332L60.011 95.0252ZM53.6801 110H66.3122L67.4829 116H52.4798L53.6801 110ZM81 82.0001L81.7999 85.6001L79.7569 88.4053C79.6266 88.512 79.5059 88.6411 79.3999 88.8L71.0808 100.319L68.4412 103.943L63.0494 91.8117C69.6255 91.0097 75.4816 87.6581 80.1769 82.8558C80.4544 82.5759 80.7291 82.2916 81 82.0001ZM88.8096 69.5587C89.9376 66.814 90.788 63.9609 91.3256 61.0852C92.0871 61.5464 92.9541 61.8546 93.8887 61.9591C93.5421 64.7862 92.2861 67.4552 88.8096 69.5587ZM99.7999 40.3999V55.3999C99.7999 56.5999 98.7998 57.7999 97.3999 57.7999H94.3999C93.1999 57.7999 91.9999 56.7998 91.9999 55.3999V54V40.3999C91.9999 39.1999 93 37.9999 94.3999 37.9999H97.3999C98.5999 37.9999 99.7999 39 99.7999 40.3999ZM60 4.00008C72.3274 4.00008 93.0745 8.0243 93.9666 34.2326C93.1284 34.3186 92.3257 34.5734 91.5996 34.9648C89.1659 19.7348 75.8876 7.99992 60 7.99992C44.1145 7.99992 30.8377 19.7316 28.4013 34.9582C27.686 34.572 26.8873 34.3167 26.0332 34.2319C26.9257 8.0243 47.6728 4.00008 60 4.00008ZM27.7999 55.3999C27.7999 56.5999 26.7998 57.7999 25.3999 57.7999H22.3999C21.1999 57.7999 19.9999 56.7998 19.9999 55.3999V40.3999C19.9999 39.1999 21 37.9999 22.3999 37.9999H25.3999C26.5999 37.9999 27.7999 39 27.7999 40.3999V55.3999ZM31.9999 40.0001C31.9999 24.6 44.5999 12 60 12C75.4001 12 88.0001 24.6 88.0001 40.0001V54C88.0001 60.6169 86.2774 66.6748 83.4846 71.786C78.7109 73.1707 71.8434 73.9999 62.0002 73.9999C60.8002 73.9999 60.0002 74.7998 60.0002 75.9998C60.0002 77.1998 60.8002 77.9998 62.0002 77.9998C69.206 77.9998 75.2325 77.5573 80.1677 76.6322C80.0452 76.7548 79.9226 76.8773 79.8 76.9999C78.7938 78.3415 77.7319 79.5647 76.6223 80.6677C71.913 85.0549 66.2962 87.7125 60.8836 87.9757C60.6112 87.8587 60.3059 87.7999 60 87.7999C59.6925 87.7999 59.4155 87.8602 59.167 87.9783C55.8539 87.8264 52.4632 86.7762 49.2492 84.9799C45.993 83.1091 42.93 80.4122 40.2 76.9999C40.0001 76.8 39.7999 76.5998 39.6 76.3999L39.4833 76.361C34.9917 70.4702 31.9999 62.7206 31.9999 54V40.0001ZM56.9503 91.8117L51.5585 103.943L48.919 100.319L40.5998 88.8C40.5361 88.7363 40.4658 88.6732 40.3927 88.6111L38.1998 85.6001L38.9998 82.0001C39.2705 82.2916 39.5452 82.5757 39.8222 82.8553C44.5177 87.6577 50.3742 91.0095 56.9503 91.8117ZM4.00008 109.4C4.00008 106.8 5.4 104.4 7.8 103.2C20.5484 96.4275 29.7253 93.0284 37.9003 92.013L49.8352 108.424L48.3199 116H4.00008V109.4ZM116 116H71.6801L70.1648 108.424L82.2291 91.8352C90.3752 93.0645 99.7169 96.461 112.2 103C114.6 104.4 116 106.8 116 109.4V116H116Z" fill="#262C44"/>
</svg>
