<svg width="120" height="120" viewBox="0 0 120 120" fill="none" xmlns="http://www.w3.org/2000/svg">
<path d="M94 25H76V21C76 17.6862 73.3138 15 70 15H2C0.8955 15 0 15.8955 0 17V83C0 86.3138 2.68625 89 6 89H14.16C15.2577 96.6435 22.344 101.95 29.9877 100.852C36.1312 99.97 40.9577 95.1432 41.84 89H82.16C83.2578 96.6435 90.344 101.95 97.9877 100.852C104.131 99.97 108.958 95.1432 109.84 89H118C119.104 89 120 88.1045 120 87V51C119.983 36.6475 108.353 25.0165 94 25ZM15.142 81.472C15.072 81.632 15.024 81.78 14.962 81.936C14.864 82.188 14.762 82.44 14.682 82.7C14.626 82.872 14.58 83.05 14.532 83.226C14.462 83.476 14.394 83.724 14.332 83.978C14.29 84.166 14.258 84.354 14.224 84.546C14.196 84.698 14.158 84.846 14.136 85H6C4.8955 85 4 84.1045 4 83V81H15.366C15.29 81.158 15.212 81.312 15.142 81.472ZM28 97C22.4772 97 18 92.5228 18 87C18 81.4772 22.4772 77 28 77C33.5228 77 38 81.4772 38 87C37.9935 92.52 33.52 96.9935 28 97ZM72 85H41.858C41.836 84.846 41.8 84.698 41.77 84.546C41.736 84.346 41.704 84.166 41.662 83.978C41.606 83.724 41.538 83.476 41.462 83.226C41.414 83.05 41.368 82.872 41.312 82.7C41.228 82.44 41.13 82.188 41.032 81.936C40.97 81.78 40.916 81.624 40.852 81.472C40.788 81.32 40.704 81.158 40.628 81H72V85ZM72 77H37.778C37.724 76.946 37.664 76.896 37.606 76.844C37.42 76.668 37.234 76.492 37.038 76.326C36.9 76.208 36.756 76.098 36.612 75.986C36.412 75.832 36.212 75.682 36.012 75.538C35.86 75.432 35.706 75.338 35.548 75.23C35.348 75.096 35.13 74.966 34.914 74.844C34.752 74.75 34.588 74.662 34.422 74.574C34.2 74.46 33.976 74.352 33.748 74.25C33.578 74.172 33.408 74.096 33.236 74.026C33 73.93 32.758 73.846 32.516 73.762C32.342 73.702 32.17 73.64 31.992 73.588C31.736 73.512 31.476 73.45 31.216 73.388C31.044 73.348 30.876 73.302 30.702 73.268C30.41 73.21 30.102 73.17 29.812 73.132C29.664 73.112 29.518 73.084 29.368 73.07C28.92 73.026 28.462 73 28 73C27.538 73 27.08 73.026 26.63 73.07C26.48 73.084 26.334 73.112 26.186 73.132C25.886 73.17 25.586 73.21 25.296 73.268C25.122 73.302 24.954 73.348 24.782 73.388C24.522 73.45 24.262 73.512 24.006 73.588C23.828 73.64 23.656 73.702 23.482 73.762C23.24 73.846 22.998 73.93 22.762 74.026C22.59 74.096 22.42 74.172 22.25 74.25C22.022 74.352 21.798 74.45 21.576 74.574C21.41 74.662 21.246 74.75 21.084 74.844C20.868 74.966 20.658 75.096 20.45 75.23C20.292 75.33 20.138 75.43 19.986 75.538C19.786 75.682 19.586 75.832 19.386 75.986C19.242 76.098 19.098 76.208 18.96 76.326C18.76 76.492 18.578 76.668 18.392 76.844C18.322 76.91 18.248 76.97 18.178 77.044C18.1195 77.0262 18.06 77.0117 18 77H4V19H70C71.1045 19 72 19.8955 72 21V77ZM96 97C90.4772 97 86 92.5228 86 87C86 81.4772 90.4772 77 96 77C101.523 77 106 81.4772 106 87C105.993 92.52 101.52 96.9935 96 97ZM116 85H109.858C109.836 84.846 109.798 84.698 109.77 84.546C109.736 84.346 109.704 84.166 109.662 83.978C109.606 83.724 109.538 83.476 109.462 83.226C109.414 83.05 109.368 82.872 109.312 82.7C109.228 82.44 109.13 82.188 109.032 81.936C108.97 81.78 108.916 81.624 108.852 81.472C108.728 81.186 108.588 80.908 108.452 80.632C108.396 80.522 108.348 80.408 108.288 80.3C108.081 79.9228 107.858 79.5552 107.618 79.198C107.564 79.118 107.502 79.046 107.448 78.966C107.248 78.692 107.048 78.422 106.848 78.166C106.75 78.046 106.648 77.934 106.542 77.816C106.36 77.616 106.18 77.402 105.988 77.216C105.866 77.092 105.738 76.976 105.61 76.858C105.424 76.682 105.238 76.506 105.042 76.34C104.904 76.222 104.76 76.112 104.616 76C104.416 75.846 104.216 75.696 104.016 75.552C103.864 75.446 103.71 75.352 103.552 75.244C103.352 75.11 103.134 74.98 102.918 74.858C102.756 74.764 102.592 74.676 102.426 74.588C102.204 74.474 101.98 74.366 101.752 74.264C101.582 74.186 101.412 74.11 101.24 74.04C101.004 73.944 100.762 73.86 100.52 73.776C100.346 73.716 100.174 73.654 99.996 73.602C99.74 73.526 99.48 73.464 99.22 73.402C99.048 73.362 98.88 73.316 98.706 73.282C98.414 73.224 98.116 73.184 97.816 73.146C97.668 73.126 97.522 73.098 97.372 73.084C96.92 73.026 96.462 73 96 73C95.538 73 95.08 73.026 94.63 73.07C94.48 73.084 94.334 73.112 94.186 73.132C93.886 73.17 93.586 73.21 93.296 73.268C93.122 73.302 92.954 73.348 92.782 73.388C92.522 73.45 92.262 73.512 92.006 73.588C91.828 73.64 91.656 73.702 91.482 73.762C91.24 73.846 90.998 73.93 90.762 74.026C90.59 74.096 90.42 74.172 90.25 74.25C90.022 74.352 89.798 74.45 89.576 74.574C89.41 74.662 89.246 74.75 89.084 74.844C88.868 74.966 88.658 75.096 88.45 75.23C88.292 75.33 88.138 75.43 87.986 75.538C87.786 75.682 87.586 75.832 87.386 75.986C87.242 76.098 87.098 76.208 86.96 76.326C86.76 76.492 86.578 76.668 86.392 76.844C86.264 76.962 86.136 77.078 86.014 77.202C85.814 77.402 85.642 77.602 85.46 77.802C85.358 77.92 85.26 78.032 85.154 78.152C84.942 78.412 84.744 78.682 84.554 78.952C84.5 79.032 84.438 79.104 84.384 79.184C84.144 79.54 83.9207 79.9072 83.714 80.286C83.654 80.394 83.606 80.508 83.55 80.618C83.408 80.894 83.268 81.172 83.15 81.458C83.086 81.61 83.032 81.766 82.97 81.922C82.872 82.174 82.77 82.426 82.69 82.686C82.634 82.858 82.588 83.036 82.54 83.212C82.47 83.462 82.402 83.71 82.34 83.964C82.298 84.152 82.266 84.34 82.232 84.532C82.204 84.684 82.166 84.832 82.144 84.986H76V29H84V55C84.0065 60.52 88.48 64.9935 94 65H116V85ZM116 61H94C90.6862 61 88 58.3138 88 55V29H94C106.144 29.0142 115.986 38.8558 116 51V61Z" fill="#262C44"/>
<path d="M56.728 32.272C55.6235 32.272 54.728 33.1675 54.728 34.272C54.728 36.4813 52.9372 38.272 50.728 38.272C48.5187 38.272 46.728 36.4813 46.728 34.272C46.728 32.0628 48.5187 30.272 50.728 30.272C51.8325 30.272 52.728 29.3765 52.728 28.272C52.728 27.1675 51.8325 26.272 50.728 26.272C46.3097 26.272 42.728 29.8538 42.728 34.272C42.7352 35.6963 43.127 37.092 43.862 38.312L29.31 52.862C28.0905 52.1277 26.6955 51.736 25.272 51.728C20.8537 51.728 17.272 55.3097 17.272 59.728C17.272 60.8325 18.1675 61.728 19.272 61.728C20.3765 61.728 21.272 60.8325 21.272 59.728C21.272 57.5187 23.0627 55.728 25.272 55.728C27.4812 55.728 29.272 57.5187 29.272 59.728C29.272 61.9372 27.4812 63.728 25.272 63.728C24.1675 63.728 23.272 64.6235 23.272 65.728C23.272 66.8325 24.1675 67.728 25.272 67.728C29.6902 67.728 33.272 64.1462 33.272 59.728C33.2647 58.3037 32.873 56.908 32.138 55.688L46.69 41.138C47.9095 41.8723 49.3045 42.264 50.728 42.272C55.1462 42.272 58.728 38.6903 58.728 34.272C58.728 33.1675 57.8325 32.272 56.728 32.272Z" fill="#262C44"/>
<path d="M96 79C91.5817 79 88 82.5818 88 87C88 91.4183 91.5817 95 96 95C100.418 95 104 91.4183 104 87C104 82.5818 100.418 79 96 79ZM96 91C93.7908 91 92 89.2093 92 87C92 84.7908 93.7908 83 96 83C98.2092 83 100 84.7908 100 87C100 89.2093 98.2092 91 96 91Z" fill="#262C44"/>
<path d="M28 79C23.5817 79 20 82.5818 20 87C20 91.4183 23.5817 95 28 95C32.4182 95 36 91.4183 36 87C36 82.5818 32.4182 79 28 79ZM28 91C25.7907 91 24 89.2093 24 87C24 84.7908 25.7907 83 28 83C30.2092 83 32 84.7908 32 87C32 89.2093 30.2092 91 28 91Z" fill="#262C44"/>
<path d="M118 101H2C0.8955 101 0 101.895 0 103C0 104.104 0.8955 105 2 105H118C119.104 105 120 104.104 120 103C120 101.895 119.104 101 118 101Z" fill="#262C44"/>
</svg>
