<svg width="120" height="120" viewBox="0 0 120 120" fill="none" xmlns="http://www.w3.org/2000/svg">
<g clip-path="url(#clip0)">
<path d="M81.5671 36.3629C80.2709 36.3629 79.2188 37.4103 79.2188 38.7057C79.2188 40.0003 80.2709 41.0495 81.5671 41.0495C82.866 41.0495 83.9154 40.0003 83.9154 38.7057C83.9154 37.4103 82.866 36.3629 81.5671 36.3629Z" fill="#262C44"/>
<path d="M38.8989 78.9468C37.6 78.9468 36.5505 79.9969 36.5505 81.2906C36.5505 82.587 37.6 83.6343 38.8989 83.6343C40.195 83.6343 41.2472 82.587 41.2472 81.2906C41.2472 79.9969 40.195 78.9468 38.8989 78.9468Z" fill="#262C44"/>
<path d="M117.43 14.4186C116.638 14.2346 115.805 14.4736 115.232 15.0504L105.497 24.8438H100.83L95.6917 19.531V14.8077L105.288 5.08759C105.856 4.51264 106.087 3.68592 105.899 2.89948C105.712 2.11396 105.132 1.48042 104.365 1.22224C101.954 0.411081 99.4316 8.73253e-06 96.8659 8.73253e-06C89.2173 8.73253e-06 82.2686 3.55958 77.8013 9.76594C73.6201 15.5759 72.3313 22.6959 74.1779 29.5102L56.88 46.7743L28.0615 17.9462V12.2882C28.0615 11.4652 27.6285 10.7016 26.9212 10.2786L10.3169 0.334176C9.3922 -0.219718 8.20978 -0.0741489 7.4484 0.686654L0.807011 7.31416C0.0456365 8.07496 -0.100217 9.25508 0.453844 10.1779L10.4159 26.7499C10.8397 27.4558 11.6039 27.887 12.4285 27.8879L18.0957 27.8897L46.917 56.7178L29.6851 73.916C22.8575 72.074 15.7199 73.3621 9.89581 77.5379C3.68097 81.9937 0.117188 88.927 0.117188 96.5607C0.117188 99.1205 0.529064 101.639 1.34181 104.044C1.60141 104.814 2.24262 105.396 3.03518 105.579C3.82866 105.763 4.66067 105.524 5.23399 104.947L14.9686 95.1544H19.6616L25.0086 100.491V105.175L15.197 114.89C14.6191 115.463 14.3797 116.293 14.564 117.085C14.7475 117.876 15.33 118.516 16.1015 118.775C18.5113 119.586 21.0348 119.997 23.5996 119.997C31.2482 119.997 38.1942 116.44 42.6597 110.237C46.8436 104.424 48.1343 97.3013 46.2886 90.4871L60.1282 76.6745L63.2985 80.1114L61.8436 81.5625C60.9263 82.478 60.9263 83.9621 61.8436 84.8776C62.7609 85.7923 64.247 85.7923 65.1652 84.8776L66.4825 83.5629L96.2275 115.81C96.2495 115.833 96.2724 115.856 96.2953 115.879C101.799 121.372 110.717 121.374 116.223 115.878C121.714 110.395 121.714 101.473 116.223 95.9903C116.199 95.9665 116.175 95.9436 116.15 95.9207L83.7895 66.2906L85.0921 64.9906C86.0094 64.0759 86.0094 62.5919 85.0921 61.6763C84.1748 60.7608 82.6887 60.7608 81.7705 61.6763L80.3257 63.1192L76.8757 59.9588L90.7822 46.0794C92.7591 46.6068 94.7992 46.8741 96.8659 46.8741C109.815 46.8741 120.348 36.3602 120.348 23.4375C120.348 20.8768 119.936 18.3591 119.124 15.9531C118.864 15.1831 118.223 14.6018 117.43 14.4186ZM20.7321 23.8907C20.2918 23.4503 19.6946 23.226 19.0708 23.226L13.7596 23.2242L5.4248 9.33564L9.47292 5.29542L23.3648 13.6157V18.9166C23.3648 19.5374 23.6116 20.1325 24.051 20.5719L53.5593 50.0894L50.2377 53.4036L20.7321 23.8907ZM80.4652 69.6085L112.936 99.3384C116.563 102.997 116.552 108.92 112.902 112.565C109.243 116.216 103.321 116.227 99.6481 112.597L69.8059 80.2451L80.4652 69.6085ZM77.0014 66.4362L66.6219 76.7935L63.4516 73.3566L73.5513 63.2758L77.0014 66.4362ZM96.8659 42.1866C94.812 42.1866 92.7921 41.8579 90.8639 41.2097C90.019 40.9268 89.0852 41.1447 88.4541 41.7737C76.6812 53.5236 51.3137 78.8407 41.9726 88.1644C41.3415 88.7943 41.1223 89.7263 41.4076 90.5704C43.3596 96.3556 42.4258 102.526 38.8446 107.502C35.2734 112.463 29.7163 115.31 23.5996 115.31C22.9126 115.31 22.2292 115.272 21.5522 115.2L29.0109 107.813C29.4549 107.374 29.7053 106.775 29.7053 106.15V99.5197C29.7053 98.898 29.4576 98.302 29.0173 97.8626L22.2943 91.1527C21.854 90.7132 21.2568 90.466 20.6339 90.466H13.9907C13.3642 90.466 12.7643 90.716 12.323 91.1591L4.92302 98.6032C4.84964 97.9276 4.81294 97.2455 4.81294 96.5598C4.81294 90.4541 7.66397 84.9088 12.6358 81.3446C17.6206 77.7704 23.8042 76.8375 29.6017 78.7866C30.4465 79.0714 31.3803 78.8526 32.0115 78.2227C32.1408 78.0945 78.4599 31.8649 78.4929 31.832C79.124 31.2021 79.3424 30.271 79.058 29.4269C77.105 23.6417 78.037 17.4728 81.6155 12.5006C85.1894 7.5348 90.7474 4.68751 96.865 4.68751C97.5732 4.68751 98.2767 4.72688 98.9739 4.80378L91.6702 12.2022C91.2372 12.6407 90.9951 13.2312 90.9951 13.8464V20.4767C90.9951 21.0846 91.2308 21.6678 91.6537 22.1045L98.1419 28.8144C98.584 29.2722 99.1941 29.5303 99.8316 29.5303H106.475C107.1 29.5303 107.7 29.2813 108.142 28.8373L115.542 21.3941C115.615 22.0697 115.652 22.7518 115.652 23.4375C115.652 33.7756 107.224 42.1866 96.8659 42.1866Z" fill="#262C44"/>
<path d="M73.2653 43.6771L43.879 73.006C42.9626 73.9206 42.9626 75.4047 43.879 76.3202C44.7963 77.2357 46.2832 77.2357 47.2006 76.3202L76.5869 46.9913C77.5042 46.0767 77.5042 44.5926 76.5869 43.6771C75.6696 42.7615 74.1826 42.7615 73.2653 43.6771Z" fill="#262C44"/>
<path d="M102.941 105.937C103.858 106.85 105.345 106.85 106.262 105.932C107.178 105.016 107.175 103.531 106.257 102.618L85.0896 81.5597C84.1714 80.6461 82.6835 80.6488 81.769 81.5652C80.8525 82.4826 80.8553 83.9658 81.7735 84.8795L102.941 105.937Z" fill="#262C44"/>
</g>
<defs>
<clipPath id="clip0">
<rect width="120" height="120" fill="white"/>
</clipPath>
</defs>
</svg>
