<svg width="120" height="120" viewBox="0 0 120 120" fill="none" xmlns="http://www.w3.org/2000/svg">
<g clip-path="url(#clip0)">
<path d="M118.359 0H92.2659C91.8309 0.000248384 91.4137 0.173179 91.1061 0.480802C90.7985 0.788425 90.6256 1.20558 90.6253 1.64062V9.60938C90.6253 10.0445 90.7982 10.4618 91.1058 10.7695C91.4135 11.0771 91.8308 11.25 92.2659 11.25H94.2966V41.25C94.2943 43.3006 93.4787 45.2666 92.0287 46.7166C90.5788 48.1666 88.6128 48.9821 86.5622 48.9844H83.9859V44.0625C83.9857 43.6275 83.8128 43.2103 83.5051 42.9027C83.1975 42.5951 82.7804 42.4221 82.3453 42.4219H74.3766C74.161 42.4218 73.9475 42.4641 73.7483 42.5465C73.5491 42.6289 73.368 42.7497 73.2155 42.902C73.063 43.0544 72.942 43.2353 72.8594 43.4344C72.7768 43.6335 72.7342 43.8469 72.7341 44.0625V48.9844H47.2659V44.0625C47.2657 43.6275 47.0928 43.2103 46.7851 42.9027C46.4775 42.5951 46.0604 42.4221 45.6253 42.4219H37.6566C37.441 42.4218 37.2275 42.4641 37.0283 42.5465C36.8291 42.6289 36.648 42.7497 36.4955 42.902C36.343 43.0544 36.222 43.2353 36.1394 43.4344C36.0568 43.6335 36.0142 43.8469 36.0141 44.0625V48.9844H33.4378C25.5462 48.9933 17.9804 52.1322 12.4002 57.7124C6.82 63.2926 3.68112 70.8584 3.67219 78.75V108.75H1.64062C1.20567 108.75 0.788509 108.923 0.480859 109.23C0.173209 109.538 0.000248548 109.955 0 110.39L0 118.358C-7.09731e-08 118.794 0.172821 119.211 0.480471 119.519C0.788121 119.827 1.20542 120 1.64062 120H27.7341C28.1691 120 28.5863 119.827 28.8939 119.519C29.2015 119.212 29.3744 118.794 29.3747 118.359V110.391C29.3747 109.956 29.2018 109.538 28.8942 109.231C28.5865 108.923 28.1692 108.75 27.7341 108.75H25.7034V78.75C25.7057 76.6994 26.5213 74.7334 27.9713 73.2834C29.4212 71.8334 31.3872 71.0179 33.4378 71.0156H36.0141V75.9375C36.0143 76.3725 36.1872 76.7897 36.4949 77.0973C36.8025 77.4049 37.2196 77.5779 37.6547 77.5781H45.6234C45.839 77.5782 46.0525 77.5359 46.2517 77.4535C46.4509 77.3711 46.632 77.2503 46.7845 77.098C46.937 76.9456 47.058 76.7647 47.1406 76.5656C47.2232 76.3665 47.2658 76.1531 47.2659 75.9375V71.0156H72.7341V75.9375C72.7343 76.3725 72.9072 76.7897 73.2149 77.0973C73.5225 77.4049 73.9396 77.5779 74.3747 77.5781H82.3434C82.559 77.5782 82.7725 77.5359 82.9717 77.4535C83.1709 77.3711 83.352 77.2503 83.5045 77.098C83.657 76.9456 83.778 76.7647 83.8606 76.5656C83.9432 76.3665 83.9858 76.1531 83.9859 75.9375V71.0156H86.5622C94.4538 71.0067 102.02 67.8678 107.6 62.2876C113.18 56.7074 116.319 49.1416 116.328 41.25V11.25H118.359C118.794 11.25 119.212 11.0771 119.519 10.7695C119.827 10.4618 120 10.0445 120 9.60938V1.64062C120 1.20558 119.827 0.788425 119.519 0.480802C119.212 0.173179 118.794 0.000248384 118.359 0V0ZM86.5622 52.2656C89.4827 52.2624 92.2827 51.1008 94.3478 49.0357C96.413 46.9705 97.5746 44.1705 97.5778 41.25V11.25H106.484V41.25C106.478 46.5318 104.377 51.5955 100.643 55.3303C96.9077 59.0651 91.844 61.1659 86.5622 61.1719H83.9859V52.2656H86.5622ZM72.7341 52.2656V61.1719H47.2659V52.2656H72.7341ZM6.95344 78.75C6.96113 71.7283 9.75391 64.9963 14.719 60.0312C19.6841 55.0661 26.4161 52.2733 33.4378 52.2656H36.0141V61.1719H33.4378C28.7774 61.1771 24.3094 63.0307 21.014 66.3261C17.7185 69.6216 15.8649 74.0896 15.8597 78.75V108.75H6.95344V78.75ZM26.0934 116.719H3.28125V112.031H26.0934V116.719ZM33.4378 67.7344C30.5173 67.7376 27.7173 68.8992 25.6522 70.9643C23.587 73.0295 22.4254 75.8295 22.4222 78.75V108.75H19.1409V78.75C19.1452 74.9595 20.6528 71.3255 23.3331 68.6452C26.0133 65.965 29.6473 64.4573 33.4378 64.4531H36.0141V67.7344H33.4378ZM43.9847 74.2969H39.2972V45.7031H43.9847V74.2969ZM47.2659 67.7344V64.4531H72.7341V67.7344H47.2659ZM80.7047 74.2969H76.0172V45.7031H80.7047V74.2969ZM113.047 41.25C113.039 48.2717 110.246 55.0037 105.281 59.9688C100.316 64.9339 93.5839 67.7267 86.5622 67.7344H83.9859V64.4531H86.5622C92.7139 64.4462 98.6117 61.9993 102.962 57.6494C107.312 53.2995 109.758 47.4017 109.765 41.25V11.25H113.047V41.25ZM116.719 7.96875H93.9066V3.28125H116.719V7.96875Z" fill="#262C44"/>
<path d="M65.8905 97.0033C66.2739 96.9398 66.6224 96.7423 66.8738 96.4458C67.1252 96.1494 67.2631 95.7734 67.2631 95.3847C67.2631 94.996 67.1252 94.62 66.8738 94.3236C66.6224 94.0271 66.2739 93.8296 65.8905 93.7661L61.5986 93.0592C60.1968 92.8288 58.9026 92.1649 57.8976 91.1608C56.8927 90.1567 56.2277 88.863 55.9961 87.4614L55.2892 83.1695C55.2257 82.7861 55.0282 82.4376 54.7318 82.1862C54.4353 81.9349 54.0593 81.7969 53.6706 81.7969C53.282 81.7969 52.9059 81.9349 52.6095 82.1862C52.3131 82.4376 52.1155 82.7861 52.052 83.1695L51.3452 87.4614C51.1144 88.8638 50.4498 90.1586 49.4448 91.1636C48.4398 92.1686 47.1451 92.8332 45.7427 93.0639L41.4508 93.7708C41.0673 93.8343 40.7189 94.0318 40.4675 94.3282C40.2161 94.6247 40.0781 95.0007 40.0781 95.3894C40.0781 95.7781 40.2161 96.1541 40.4675 96.4505C40.7189 96.7469 41.0673 96.9445 41.4508 97.008L45.7427 97.7158C47.145 97.946 48.4398 98.6102 49.4448 99.6149C50.4498 100.62 51.1145 101.914 51.3452 103.316L52.052 107.608C52.1155 107.992 52.3131 108.34 52.6095 108.592C52.9059 108.843 53.282 108.981 53.6706 108.981C54.0593 108.981 54.4353 108.843 54.7318 108.592C55.0282 108.34 55.2257 107.992 55.2892 107.608L55.9961 103.316C56.2268 101.914 56.8914 100.62 57.8965 99.6149C58.9015 98.6102 60.1963 97.946 61.5986 97.7158L65.8905 97.0033ZM53.673 99.9433C52.6929 97.9658 51.0914 96.3643 49.1139 95.3842C51.0916 94.4048 52.6932 92.8035 53.673 90.8261C54.6528 92.8038 56.2549 94.4052 58.233 95.3842C56.255 96.3639 54.6531 97.9655 53.673 99.9433Z" fill="#262C44"/>
<path d="M33.3114 23.9289L29.0205 23.2221C27.6181 22.9914 26.3233 22.327 25.3181 21.3222C24.313 20.3174 23.6481 19.0228 23.417 17.6205L22.7111 13.3286C22.6482 12.9446 22.4509 12.5954 22.1543 12.3434C21.8577 12.0915 21.4812 11.9531 21.092 11.9531C20.7029 11.9531 20.3264 12.0915 20.0298 12.3434C19.7332 12.5954 19.5359 12.9446 19.473 13.3286L18.767 17.6205C18.536 19.0227 17.8713 20.3172 16.8663 21.322C15.8614 22.3267 14.5668 22.9913 13.1645 23.2221L8.87266 23.9289C8.48921 23.9924 8.14076 24.19 7.88937 24.4864C7.63799 24.7828 7.5 25.1589 7.5 25.5475C7.5 25.9362 7.63799 26.3123 7.88937 26.6087C8.14076 26.9051 8.48921 27.1026 8.87266 27.1661L13.1645 27.873C14.5669 28.1037 15.8617 28.7684 16.8667 29.7733C17.8717 30.7783 18.5363 32.0731 18.767 33.4755L19.473 37.7674C19.5359 38.1514 19.7332 38.5006 20.0298 38.7526C20.3264 39.0046 20.7029 39.1429 21.092 39.1429C21.4812 39.1429 21.8577 39.0046 22.1543 38.7526C22.4509 38.5006 22.6482 38.1514 22.7111 37.7674L23.417 33.4755C23.6478 32.0731 24.3124 30.7783 25.3174 29.7733C26.3224 28.7684 27.6171 28.1037 29.0195 27.873L33.3114 27.1661C33.6949 27.1026 34.0433 26.9051 34.2947 26.6087C34.5461 26.3123 34.6841 25.9362 34.6841 25.5475C34.6841 25.1589 34.5461 24.7828 34.2947 24.4864C34.0433 24.19 33.6949 23.9924 33.3114 23.9289ZM21.092 30.1061C20.1125 28.1285 18.5108 26.5271 16.533 25.548C18.5107 24.5679 20.1123 22.966 21.092 20.988C22.0714 22.9662 23.6731 24.5682 25.6511 25.548C23.6735 26.5274 22.0718 28.1287 21.092 30.1061Z" fill="#262C44"/>
<path d="M82.0614 34.2414L77.7705 33.5346C76.3681 33.3039 75.0733 32.6395 74.0681 31.6347C73.063 30.6299 72.3981 29.3353 72.167 27.933L71.4611 23.6411C71.3982 23.2571 71.2009 22.9079 70.9043 22.6559C70.6077 22.404 70.2312 22.2656 69.842 22.2656C69.4529 22.2656 69.0764 22.404 68.7798 22.6559C68.4832 22.9079 68.2859 23.2571 68.223 23.6411L67.517 27.933C67.286 29.3352 66.6213 30.6297 65.6163 31.6345C64.6114 32.6392 63.3168 33.3038 61.9145 33.5346L57.6227 34.2414C57.2392 34.3049 56.8908 34.5025 56.6394 34.7989C56.388 35.0953 56.25 35.4714 56.25 35.86C56.25 36.2487 56.388 36.6248 56.6394 36.9212C56.8908 37.2176 57.2392 37.4152 57.6227 37.4786L61.9145 38.1855C63.3169 38.4162 64.6117 39.0809 65.6167 40.0858C66.6217 41.0908 67.2863 42.3856 67.517 43.788L68.223 48.0799C68.2859 48.4639 68.4832 48.8131 68.7798 49.0651C69.0764 49.3171 69.4529 49.4554 69.842 49.4554C70.2312 49.4554 70.6077 49.3171 70.9043 49.0651C71.2009 48.8131 71.3982 48.4639 71.4611 48.0799L72.167 43.788C72.3978 42.3856 73.0624 41.0908 74.0674 40.0858C75.0724 39.0809 76.3671 38.4162 77.7695 38.1855L82.0614 37.4786C82.4449 37.4152 82.7933 37.2176 83.0447 36.9212C83.2961 36.6248 83.4341 36.2487 83.4341 35.86C83.4341 35.4714 83.2961 35.0953 83.0447 34.7989C82.7933 34.5025 82.4449 34.3049 82.0614 34.2414ZM69.842 40.4186C68.8625 38.441 67.2608 36.8396 65.283 35.8605C67.2607 34.8804 68.8623 33.2785 69.842 31.3005C70.8214 33.2787 72.4231 34.8807 74.4011 35.8605C72.4235 36.8399 70.8218 38.4412 69.842 40.4186Z" fill="#262C44"/>
</g>
<defs>
<clipPath id="clip0">
<rect width="120" height="120" fill="white"/>
</clipPath>
</defs>
</svg>
