<svg width="25" height="25" viewBox="0 0 25 25" fill="none" xmlns="http://www.w3.org/2000/svg">
<path d="M0.970459 4.6875L0.952148 4.71191H0.823975C0.61678 4.71193 0.418078 4.79425 0.271569 4.94076C0.125061 5.08727 0.0427444 5.28597 0.0427246 5.49316V5.85632L0 5.91125L0.0427246 5.94482V19.5312C0.0427444 19.7384 0.125061 19.9371 0.271569 20.0837C0.418078 20.2302 0.61678 20.3125 0.823975 20.3125H24.2126C24.3155 20.3129 24.4174 20.293 24.5125 20.2539C24.6077 20.2148 24.6942 20.1573 24.767 20.0847C24.8399 20.0122 24.8977 19.9259 24.9372 19.8309C24.9766 19.7359 24.9969 19.6341 24.9969 19.5312V5.95093L25 5.94788L24.9969 5.94482V5.49316C24.9969 5.39031 24.9766 5.28848 24.9372 5.1935C24.8977 5.09852 24.8399 5.01226 24.767 4.93968C24.6942 4.86709 24.6077 4.80961 24.5125 4.77053C24.4174 4.73144 24.3155 4.71152 24.2126 4.71191H1.00098L0.970459 4.6875ZM2.97241 6.27441H22.0764L12.5305 13.8489L2.97241 6.27441ZM1.60217 7.18384L12.0483 15.4602C12.1862 15.5689 12.3565 15.6279 12.532 15.6279C12.7075 15.6279 12.8779 15.5689 13.0157 15.4602L23.4314 7.18994V18.75H1.60217V7.18384Z" fill="#1775BC"/>
</svg>
