<svg width="25" height="25" viewBox="0 0 25 25" fill="none" xmlns="http://www.w3.org/2000/svg">
<path d="M24.5259 7.37129L17.9633 4.89731C17.8428 2.17651 15.5918 0 12.8418 0C10.1177 0 7.86943 2.1291 7.7231 4.84736C7.68262 5.58804 7.73447 6.19766 8.10322 7.03345L0.991016 4.3458C0.766016 4.26089 0.513672 4.29185 0.315869 4.42861C0.118066 4.56538 0 4.79058 0 5.03106V21.242C0 21.5467 0.188721 21.8197 0.473828 21.9272L8.48086 24.9525C8.48091 24.9525 8.48096 24.9526 8.48105 24.9526L8.48164 24.9528C8.64937 25.0161 8.8374 25.0139 8.99883 24.9528L16.5039 22.1207L24.009 24.9528C24.2334 25.0375 24.4858 25.0071 24.6841 24.87C24.8819 24.7333 25 24.5081 25 24.2676V8.05664C25 7.75181 24.8112 7.47886 24.5259 7.37129ZM8.00781 23.2084L1.46484 20.7355V6.09028L8.00781 8.56309V23.2084ZM15.7715 20.8314L9.47266 23.2084V9.40151C10.1317 10.4289 11.0155 11.7658 12.225 13.6544C12.3597 13.8646 12.5921 13.9918 12.8418 13.9918C13.0915 13.9918 13.3239 13.8647 13.4586 13.6544C14.4237 12.1475 15.1922 10.9767 15.7715 10.0878V20.8314ZM16.5004 5.35249C16.4997 5.36289 16.4995 5.37329 16.4993 5.38369C16.4512 6.55034 15.9329 7.1168 12.8418 11.9051C9.44736 6.64409 9.10747 6.35918 9.18574 4.92734C9.18574 4.9271 9.18574 4.9269 9.18579 4.92666C9.29009 2.98545 10.896 1.46484 12.8418 1.46484C14.8611 1.46484 16.5039 3.10767 16.5039 5.12695C16.5039 5.20562 16.5029 5.28032 16.5004 5.35249ZM23.5352 23.2084L17.2363 20.8314V7.74038C17.523 7.22441 17.7058 6.81065 17.817 6.40762L23.5352 8.56328V23.2084Z" fill="#1775BC"/>
<path d="M12.8418 2.92969C11.6302 2.92969 10.6445 3.91538 10.6445 5.12695C10.6445 6.33853 11.6302 7.32422 12.8418 7.32422C14.0534 7.32422 15.0391 6.33853 15.0391 5.12695C15.0391 3.91538 14.0534 2.92969 12.8418 2.92969ZM12.8418 5.85938C12.4379 5.85938 12.1094 5.53081 12.1094 5.12695C12.1094 4.7231 12.4379 4.39453 12.8418 4.39453C13.2457 4.39453 13.5742 4.7231 13.5742 5.12695C13.5742 5.53081 13.2457 5.85938 12.8418 5.85938Z" fill="#1775BC"/>
</svg>
