<svg width="25" height="25" viewBox="0 0 25 25" fill="none" xmlns="http://www.w3.org/2000/svg">
<path d="M5.06285 16.6181C7.472 19.5118 10.4926 21.8684 13.92 23.5285C15.46 24.32 17.1427 24.8152 18.8757 24.9868C18.995 24.9917 19.11 24.9972 19.2329 24.9972C19.834 25.0135 20.4313 24.8997 20.9816 24.6641C21.5319 24.4284 22.0215 24.0768 22.415 23.6347C22.4222 23.6277 22.4285 23.6197 22.4336 23.6111C22.7487 23.2485 23.0837 22.9026 23.4371 22.575C23.6814 22.3417 23.9314 22.0986 24.17 21.85C24.4325 21.6113 24.6416 21.3225 24.7843 21.0017C24.9269 20.681 25 20.335 24.999 19.9856C24.998 19.6361 24.9229 19.2906 24.7784 18.9706C24.6339 18.6506 24.4232 18.363 24.1593 18.1257L21.0343 15.0125C20.8064 14.7565 20.5261 14.5495 20.2112 14.4049C19.8963 14.2604 19.5538 14.1813 19.2057 14.1729C18.8551 14.1826 18.5102 14.2614 18.1919 14.4047C17.8737 14.5479 17.5887 14.7526 17.3543 15.0063L15.4914 16.8618C15.32 16.7632 15.1429 16.675 14.9764 16.5924C14.7806 16.4982 14.5899 16.3944 14.405 16.2812C12.6085 15.1167 11.0191 13.6753 9.69928 12.0139C9.05746 11.2425 8.52242 10.3927 8.10785 9.48611C8.59643 9.04583 9.05428 8.58333 9.49643 8.13403C9.65214 7.97361 9.81357 7.81319 9.975 7.65208C10.5043 7.16553 10.8145 6.49535 10.8379 5.7875C10.8274 5.43677 10.7458 5.0915 10.5978 4.77152C10.4497 4.45154 10.238 4.16315 9.975 3.92292L8.425 2.37778C8.24285 2.19653 8.06785 2.02014 7.89428 1.83889C7.55142 1.48681 7.19214 1.12431 6.83857 0.797222C6.60432 0.551565 6.32153 0.354352 6.0071 0.217374C5.69267 0.0803953 5.35306 0.00646401 5.00857 0C4.66077 0.00853159 4.31813 0.0838515 4.00039 0.221625C3.68265 0.359398 3.39607 0.556905 3.15714 0.802778L1.21285 2.74028C0.51494 3.42384 0.0924404 4.32816 0.0221396 5.28889C-0.048106 6.70494 0.19852 8.11895 0.744997 9.43333C1.74755 12.0523 3.20836 14.483 5.06285 16.6181ZM1.29071 5.39792C1.33927 4.73333 1.63269 4.10805 2.11714 3.63681L4.05214 1.70972C4.29849 1.44573 4.6424 1.28741 5.00857 1.26944C5.18792 1.2785 5.36346 1.32316 5.52438 1.40067C5.68531 1.47819 5.82821 1.58691 5.94428 1.72014C6.29285 2.04097 6.62 2.37778 6.97357 2.73542C7.15071 2.91667 7.33071 3.09792 7.51428 3.28472L9.06285 4.82778C9.35045 5.07563 9.52599 5.4237 9.55143 5.79653C9.52599 6.16936 9.35045 6.51742 9.06285 6.76528C8.90143 6.92569 8.74071 7.09167 8.57928 7.25139C8.09571 7.7375 7.64357 8.19931 7.14428 8.64028L7.11857 8.66597C6.95961 8.8089 6.84949 8.99572 6.803 9.20132C6.75652 9.40691 6.77591 9.62141 6.85857 9.81597C6.86357 9.83125 6.86928 9.84167 6.87428 9.85764C7.3361 10.9223 7.95052 11.918 8.69928 12.8153C10.1031 14.5876 11.7971 16.1233 13.7136 17.3611C13.9354 17.4972 14.1645 17.6217 14.4 17.734C14.5958 17.8282 14.7865 17.932 14.9714 18.0451C14.9921 18.0556 15.0079 18.066 15.0286 18.0764C15.1831 18.1594 15.3564 18.2037 15.5329 18.2056C15.6797 18.2005 15.8241 18.1667 15.9572 18.1062C16.0904 18.0458 16.2096 17.9598 16.3079 17.8535L18.2529 15.916C18.3716 15.7811 18.517 15.6707 18.6804 15.5915C18.8439 15.5123 19.022 15.4658 19.2043 15.4549C19.3821 15.466 19.5557 15.5128 19.7141 15.5921C19.8725 15.6714 20.0124 15.7817 20.125 15.916L23.2607 19.0347C23.4073 19.1549 23.5249 19.305 23.6051 19.4744C23.6853 19.6438 23.726 19.8283 23.7246 20.0147C23.723 20.2011 23.6793 20.385 23.5964 20.5531C23.5135 20.7213 23.3935 20.8696 23.245 20.9875C23.0264 21.2208 22.7979 21.4431 22.5536 21.6764C22.1715 22.0325 21.8089 22.4078 21.4671 22.8007C21.1911 23.1096 20.8476 23.3546 20.4616 23.5178C20.0757 23.681 19.657 23.7582 19.2364 23.7438C19.1479 23.7438 19.0543 23.7389 18.9657 23.7333C17.3973 23.5712 15.8757 23.1174 14.4836 22.3965C11.2209 20.817 8.34628 18.5731 6.055 15.8174C4.29542 13.7916 2.90601 11.4877 1.94714 9.00556C1.46252 7.86332 1.23856 6.63247 1.29071 5.39792Z" fill="#1775BC"/>
</svg>
